<svg xmlns="http://www.w3.org/2000/svg" xmlns:xlink="http://www.w3.org/1999/xlink" width="172" height="80" viewBox="0 0 172 80">
  <defs>
    <linearGradient id="desktop-a" x1="13.901%" x2="13.901%" y1="100%" y2="0%">
      <stop offset="0%" stop-color="#60D2D9"/>
      <stop offset="100%" stop-color="#72F0CD"/>
    </linearGradient>
    <path id="desktop-b" d="M56.7574962,50.9775035 L62.3514411,31.8674088 L71.0220556,31.8674088 L58.8552255,67.3616412 L58.1839521,68.9801782 C56.3752342,72.9934128 53.3918268,75 49.2336403,75 C48.058906,75 46.8655431,74.8201644 45.6535156,74.4604877 L45.6535156,68.2418982 L46.8841835,68.2702935 C48.4132027,68.2702935 49.5552884,68.0336677 50.3104747,67.5604089 C51.0656611,67.0871501 51.657681,66.3015523 52.0865522,65.2035919 L53.0375228,62.6764025 L42.4369973,31.8674088 L51.1355816,31.8674088 L56.7574962,50.9775035 Z M83.8881288,24.3142362 L83.8881288,31.8674088 L89.0625278,31.8674088 L89.0625278,37.8872306 L83.8881288,37.8872306 L83.8881288,53.220739 C83.8881288,54.3565601 84.1025612,55.1705531 84.5314325,55.6627422 C84.9603037,56.1549314 85.7807408,56.4010222 86.9927682,56.4010222 C87.8878039,56.4010222 88.6802715,56.334767 89.3701948,56.2022545 L89.3701948,62.420844 C87.7852358,62.9130332 86.1536849,63.1591241 84.475493,63.1591241 C78.8069339,63.1591241 75.9167579,60.2533586 75.8048785,54.4417406 L75.8048785,37.8872306 L71.385662,37.8872306 L71.385662,31.8674088 L75.8048785,31.8674088 L75.8048785,24.3142362 L83.8881288,24.3142362 Z M101.453116,35.2180644 C103.597472,32.6056758 106.291862,31.2995011 109.536366,31.2995011 C116.099961,31.2995011 119.428325,35.1707 119.521558,42.9132139 L119.521558,62.5912164 L111.438307,62.5912164 L111.438307,43.140377 C111.438307,41.3798543 111.065381,40.0784121 110.319518,39.2360115 C109.573655,38.3936108 108.333677,37.9724168 106.599545,37.9724168 C104.23143,37.9724168 102.515971,38.8999901 101.453116,40.7551646 L101.453116,62.5912164 L93.3698654,62.5912164 L93.3698654,18.9759036 L101.453116,18.9759036 L101.453116,35.2180644 Z M133.198753,31.8674088 L133.45048,35.3032505 C135.594837,32.6340709 138.494336,31.2995011 142.149065,31.2995011 C146.046199,31.2995011 148.721943,32.8612317 150.176376,35.9847398 C152.302085,32.8612317 155.332108,31.2995011 159.266536,31.2995011 C162.548333,31.2995011 164.990998,32.2696671 166.594604,34.2100282 C168.198209,36.1503892 169,39.0703522 169,42.9700047 L169,62.5912164 L160.88878,62.5912164 L160.88878,42.9984001 C160.88878,41.2568077 160.553147,39.9837606 159.88187,39.1792207 C159.210593,38.3746807 158.026553,37.9724168 156.329715,37.9724168 C153.90566,37.9724168 152.227493,39.146081 151.295164,41.4934446 L151.323134,62.5912164 L143.239884,62.5912164 L143.239884,43.0267955 C143.239884,41.2473424 142.894927,39.9600978 142.205004,39.165023 C141.515081,38.3699482 140.340364,37.9724168 138.680819,37.9724168 C136.38729,37.9724168 134.72777,38.9378502 133.702208,40.8687461 L133.702208,62.5912164 L125.618958,62.5912164 L125.618958,31.8674088 L133.198753,31.8674088 Z"/>
    <filter id="desktop-c" width="104%" height="108.9%" x="-2%" y="-4.5%" filterUnits="objectBoundingBox">
      <feGaussianBlur in="SourceAlpha" result="shadowBlurInner1" stdDeviation="2"/>
      <feOffset dy="1" in="shadowBlurInner1" result="shadowOffsetInner1"/>
      <feComposite in="shadowOffsetInner1" in2="SourceAlpha" k2="-1" k3="1" operator="arithmetic" result="shadowInnerInner1"/>
      <feColorMatrix in="shadowInnerInner1" values="0 0 0 0 0.112295596   0 0 0 0 0.205487975   0 0 0 0 0.314147534  0 0 0 0.76953125 0"/>
    </filter>
    <path id="desktop-d" d="M33.8354585,60.3805606 L18.2025185,33.3035142 L17.8453154,33.3035142 C17.7799919,33.3042688 17.714578,33.3046472 17.6490758,33.3046472 C17.5835735,33.3046472 17.5181596,33.3042688 17.4528361,33.3035142 L12.6156343,33.3035142 L12.6156343,63.5932011 L1,63.5932011 L1,33.3035142 L0.997280905,21.6878799 L1,11.6167672 L0.997280905,0.0011329561 L12.6156343,0 L12.6156343,0.0011329561 L17.4528361,0.0011329561 C17.5181596,0.000378340594 17.5835735,0 17.6490758,0 C17.714578,0 17.7799919,0.000378340594 17.8453154,0.0011329561 L28.2940947,0.0011329561 C28.3594182,0.000378340594 28.4248322,0 28.4903344,0 C28.5558367,0 28.6212506,0.000378340594 28.6865741,0.0011329561 L28.8802413,0.0011329561 L28.8802413,0.00447678072 C37.8951648,0.211688175 45.1394102,7.58584877 45.1394102,16.6523236 C45.1394102,24.8343209 39.2396427,31.6380849 31.4629506,33.0399878 L44.1414062,54.9997171 L44.1334778,55.0042946 C45.5008191,57.707514 44.5081969,61.0537987 41.823604,62.6037491 C39.139011,64.1536996 35.7447325,63.3401933 34.0873464,60.8044313 L34.0819719,60.8075342 L34.0092773,60.6816235 C33.9789105,60.6324952 33.9491824,60.5827511 33.9201098,60.5323958 C33.8910371,60.4820404 33.8628215,60.4314232 33.8354585,60.3805606 Z M28.8775222,11.6325734 L28.8775222,11.6179002 L12.6156343,11.6179002 L12.6156343,21.686747 L28.8775222,21.686747 L28.8775222,21.6720737 C31.4765001,21.4743274 33.5237759,19.3024556 33.5237759,16.6523236 C33.5237759,14.0021916 31.4765001,11.8303197 28.8775222,11.6325734 Z"/>
    <filter id="desktop-e" width="106.8%" height="104.7%" x="-3.4%" y="-2.4%" filterUnits="objectBoundingBox">
      <feGaussianBlur in="SourceAlpha" result="shadowBlurInner1" stdDeviation="1"/>
      <feOffset dy="1" in="shadowBlurInner1" result="shadowOffsetInner1"/>
      <feComposite in="shadowOffsetInner1" in2="SourceAlpha" k2="-1" k3="1" operator="arithmetic" result="shadowInnerInner1"/>
      <feColorMatrix in="shadowInnerInner1" values="0 0 0 0 0.112295596   0 0 0 0 0.205487975   0 0 0 0 0.314147534  0 0 0 0.76953125 0"/>
    </filter>
    <linearGradient id="desktop-f" x1="50%" x2="50%" y1="0%" y2="98.113%">
      <stop offset="0%" stop-color="#6AE7C4"/>
      <stop offset="100%" stop-color="#3289DC"/>
    </linearGradient>
    <path id="desktop-g" d="M1,42.9338842 C3.59727422,37.3567944 9.19213775,33.4579009 15.7131367,33.3090617 L15.7131367,33.3046472 L27.7765198,33.3046472 C27.7754365,33.2995906 27.7743506,33.2945349 27.7732621,33.2894802 C28.0110298,33.2995575 28.2500878,33.3046472 28.4903344,33.3046472 C37.6853651,33.3046472 45.1394102,25.8491479 45.1394102,16.6523236 C45.1394102,7.45549922 37.6853651,0 28.4903344,0 C21.0497262,0 14.7491202,4.88188158 12.6156703,11.6179002 L28.1031466,11.6179002 L28.1031466,11.6289103 C31.1301932,11.8016199 33.5237759,13.984669 33.5237759,16.6523236 C33.5237759,19.3199782 31.1301932,21.5030272 28.1031466,21.6757369 L28.1031466,21.686747 L12.6156703,21.686747 C12.6177515,21.6933179 12.6198366,21.6998871 12.6219257,21.7064545 C7.73983814,21.9575827 3.48669179,24.5889653 1,28.462867 L1,42.9338842 Z"/>
    <filter id="desktop-h" width="106.8%" height="107%" x="-3.4%" y="-3.5%" filterUnits="objectBoundingBox">
      <feGaussianBlur in="SourceAlpha" result="shadowBlurInner1" stdDeviation="1"/>
      <feOffset dy="1" in="shadowBlurInner1" result="shadowOffsetInner1"/>
      <feComposite in="shadowOffsetInner1" in2="SourceAlpha" k2="-1" k3="1" operator="arithmetic" result="shadowInnerInner1"/>
      <feColorMatrix in="shadowInnerInner1" values="0 0 0 0 0.0590890426   0 0 0 0 0.125379981   0 0 0 0 0.202673257  0 0 0 0.607252038 0"/>
    </filter>
  </defs>
  <g fill="none" fill-rule="evenodd" transform="translate(1 3)">
    <use fill="url(#desktop-a)" xlink:href="#desktop-b"/>
    <use fill="#000" filter="url(#desktop-c)" xlink:href="#desktop-b"/>
    <g>
      <use fill="url(#desktop-a)" xlink:href="#desktop-d"/>
      <use fill="#000" filter="url(#desktop-e)" xlink:href="#desktop-d"/>
      <g>
        <use fill="url(#desktop-f)" xlink:href="#desktop-g"/>
        <use fill="#000" filter="url(#desktop-h)" xlink:href="#desktop-g"/>
      </g>
    </g>
  </g>
</svg>
