<svg xmlns="http://www.w3.org/2000/svg" xmlns:xlink="http://www.w3.org/1999/xlink" width="86" height="40" viewBox="0 0 86 40">
  <defs>
    <linearGradient id="mobile-a" x1="13.901%" x2="13.901%" y1="100%" y2="0%">
      <stop offset="0%" stop-color="#60D2D9"/>
      <stop offset="100%" stop-color="#72F0CD"/>
    </linearGradient>
    <path id="mobile-b" d="M28.3787481,25.4887518 L31.1757205,15.9337044 L35.5110278,15.9337044 L29.4276128,33.6808206 L29.0919761,34.4900891 C28.1876171,36.4967064 26.6959134,37.5 24.6168202,37.5 C24.029453,37.5 23.4327715,37.4100822 22.8267578,37.2302438 L22.8267578,34.1209491 L23.4420917,34.1351468 C24.2066014,34.1351468 24.7776442,34.0168338 25.1552374,33.7802044 C25.5328305,33.543575 25.8288405,33.1507761 26.0432761,32.6017959 L26.5187614,31.3382013 L21.2184987,15.9337044 L25.5677908,15.9337044 L28.3787481,25.4887518 Z M41.9440644,12.1571181 L41.9440644,15.9337044 L44.5312639,15.9337044 L44.5312639,18.9436153 L41.9440644,18.9436153 L41.9440644,26.6103695 C41.9440644,27.1782801 42.0512806,27.5852765 42.2657162,27.8313711 C42.4801519,28.0774657 42.8903704,28.2005111 43.4963841,28.2005111 C43.9439019,28.2005111 44.3401357,28.1673835 44.6850974,28.1011273 L44.6850974,31.210422 C43.8926179,31.4565166 43.0768424,31.579562 42.2377465,31.579562 C39.4034669,31.579562 37.958379,30.1266793 37.9024392,27.2208703 L37.9024392,18.9436153 L35.692831,18.9436153 L35.692831,15.9337044 L37.9024392,15.9337044 L37.9024392,12.1571181 L41.9440644,12.1571181 Z M50.7265578,17.6090322 C51.798736,16.3028379 53.1459309,15.6497505 54.768183,15.6497505 C58.0499804,15.6497505 59.7141624,17.58535 59.7607788,21.456607 L59.7607788,31.2956082 L55.7191536,31.2956082 L55.7191536,21.5701885 C55.7191536,20.6899271 55.5326907,20.0392061 55.1597592,19.6180057 C54.7868276,19.1968054 54.1668383,18.9862084 53.2997725,18.9862084 C52.1157149,18.9862084 51.2579853,19.4499951 50.7265578,20.3775823 L50.7265578,31.2956082 L46.6849327,31.2956082 L46.6849327,9.48795181 L50.7265578,9.48795181 L50.7265578,17.6090322 Z M66.5993764,15.9337044 L66.7252402,17.6516253 C67.7974183,16.3170354 69.2471679,15.6497505 71.0745323,15.6497505 C73.0230995,15.6497505 74.3609713,16.4306159 75.0881878,17.9923699 C76.1510426,16.4306159 77.6660542,15.6497505 79.633268,15.6497505 C81.2741667,15.6497505 82.4954991,16.1348335 83.2973019,17.1050141 C84.0991046,18.0751946 84.5,19.5351761 84.5,21.4850024 L84.5,31.2956082 L80.44439,31.2956082 L80.44439,21.4992 C80.44439,20.6284039 80.2765733,19.9918803 79.9409349,19.5896103 C79.6052966,19.1873404 79.0132766,18.9862084 78.1648574,18.9862084 C76.95283,18.9862084 76.1137466,19.5730405 75.6475822,20.7467223 L75.6615671,31.2956082 L71.6199419,31.2956082 L71.6199419,21.5133977 C71.6199419,20.6236712 71.4474637,19.9800489 71.102502,19.5825115 C70.7575404,19.1849741 70.170182,18.9862084 69.3404094,18.9862084 C68.193645,18.9862084 67.3638848,19.4689251 66.8511039,20.4343731 L66.8511039,31.2956082 L62.8094788,31.2956082 L62.8094788,15.9337044 L66.5993764,15.9337044 Z"/>
    <filter id="mobile-c" width="104.7%" height="110.7%" x="-2.4%" y="-5.4%" filterUnits="objectBoundingBox">
      <feGaussianBlur in="SourceAlpha" result="shadowBlurInner1" stdDeviation="1"/>
      <feOffset dy="1" in="shadowBlurInner1" result="shadowOffsetInner1"/>
      <feComposite in="shadowOffsetInner1" in2="SourceAlpha" k2="-1" k3="1" operator="arithmetic" result="shadowInnerInner1"/>
      <feColorMatrix in="shadowInnerInner1" values="0 0 0 0 0.112295596   0 0 0 0 0.205487975   0 0 0 0 0.314147534  0 0 0 0.76953125 0"/>
    </filter>
    <path id="mobile-d" d="M16.9177293,30.1902803 L9.10125924,16.6517571 L8.92265772,16.6517571 C8.88999597,16.6521344 8.85728902,16.6523236 8.82453789,16.6523236 C8.79178676,16.6523236 8.7590798,16.6521344 8.72641805,16.6517571 L6.30781713,16.6517571 L6.30781713,31.7966005 L0.5,31.7966005 L0.5,16.6517571 L0.498640453,10.84394 L0.5,5.80838361 L0.498640453,0.000566478051 L6.30781713,0 L6.30781713,0.000566478051 L8.72641805,0.000566478051 C8.7590798,0.000189170297 8.79178676,0 8.82453789,0 C8.85728902,0 8.88999597,0.000189170297 8.92265772,0.000566478051 L14.1470474,0.000566478051 C14.1797091,0.000189170297 14.2124161,0 14.2451672,0 C14.2779183,0 14.3106253,0.000189170297 14.343287,0.000566478051 L14.4401207,0.000566478051 L14.4401207,0.00223839036 C18.9475824,0.105844088 22.5697051,3.79292438 22.5697051,8.32616179 C22.5697051,12.4171604 19.6198213,15.8190424 15.7314753,16.5199939 L22.0707031,27.4998586 L22.0667389,27.5021473 C22.7504095,28.853757 22.2540984,30.5268993 20.911802,31.3018746 C19.5695055,32.0768498 17.8723662,31.6700966 17.0436732,30.4022156 L17.0409859,30.4037671 L17.0046386,30.3408117 C16.9894553,30.3162476 16.9745912,30.2913756 16.9600549,30.2661979 C16.9455185,30.2410202 16.9314108,30.2157116 16.9177293,30.1902803 Z M14.4387611,5.81628672 L14.4387611,5.80895009 L6.30781713,5.80895009 L6.30781713,10.8433735 L14.4387611,10.8433735 L14.4387611,10.8360369 C15.7382501,10.7371637 16.761888,9.65122779 16.761888,8.32616179 C16.761888,7.00109579 15.7382501,5.91515986 14.4387611,5.81628672 Z"/>
    <filter id="mobile-e" width="109.1%" height="106.3%" x="-4.5%" y="-3.1%" filterUnits="objectBoundingBox">
      <feGaussianBlur in="SourceAlpha" result="shadowBlurInner1" stdDeviation=".5"/>
      <feOffset dy="1" in="shadowBlurInner1" result="shadowOffsetInner1"/>
      <feComposite in="shadowOffsetInner1" in2="SourceAlpha" k2="-1" k3="1" operator="arithmetic" result="shadowInnerInner1"/>
      <feColorMatrix in="shadowInnerInner1" values="0 0 0 0 0.112295596   0 0 0 0 0.205487975   0 0 0 0 0.314147534  0 0 0 0.76953125 0"/>
    </filter>
    <linearGradient id="mobile-f" x1="50%" x2="50%" y1="0%" y2="98.113%">
      <stop offset="0%" stop-color="#6AE7C4"/>
      <stop offset="100%" stop-color="#3289DC"/>
    </linearGradient>
    <path id="mobile-g" d="M0.5,21.4669421 C1.79863711,18.6783972 4.59606888,16.7289505 7.85656836,16.6545308 L7.85656836,16.6523236 L13.8882599,16.6523236 C13.8877183,16.6497953 13.8871753,16.6472675 13.8866311,16.6447401 C14.0055149,16.6497788 14.1250439,16.6523236 14.2451672,16.6523236 C18.8426825,16.6523236 22.5697051,12.924574 22.5697051,8.32616179 C22.5697051,3.72774961 18.8426825,0 14.2451672,0 C10.5248631,0 7.37456008,2.44094079 6.30783515,5.80895009 L14.0515733,5.80895009 L14.0515733,5.81445515 C15.5650966,5.90080996 16.761888,6.99233449 16.761888,8.32616179 C16.761888,9.65998909 15.5650966,10.7515136 14.0515733,10.8378684 L14.0515733,10.8433735 L6.30783515,10.8433735 C6.30887573,10.846659 6.3099183,10.8499435 6.31096284,10.8532272 C3.86991907,10.9787914 1.7433459,12.2944827 0.5,14.2314335 L0.5,21.4669421 Z"/>
    <filter id="mobile-h" width="109.1%" height="109.3%" x="-4.5%" y="-4.7%" filterUnits="objectBoundingBox">
      <feGaussianBlur in="SourceAlpha" result="shadowBlurInner1" stdDeviation=".5"/>
      <feOffset dy="1" in="shadowBlurInner1" result="shadowOffsetInner1"/>
      <feComposite in="shadowOffsetInner1" in2="SourceAlpha" k2="-1" k3="1" operator="arithmetic" result="shadowInnerInner1"/>
      <feColorMatrix in="shadowInnerInner1" values="0 0 0 0 0.0590890426   0 0 0 0 0.125379981   0 0 0 0 0.202673257  0 0 0 0.607252038 0"/>
    </filter>
  </defs>
  <g fill="none" fill-rule="evenodd" transform="translate(.5 1.5)">
    <use fill="url(#mobile-a)" xlink:href="#mobile-b"/>
    <use fill="#000" filter="url(#mobile-c)" xlink:href="#mobile-b"/>
    <g>
      <use fill="url(#mobile-a)" xlink:href="#mobile-d"/>
      <use fill="#000" filter="url(#mobile-e)" xlink:href="#mobile-d"/>
      <g>
        <use fill="url(#mobile-f)" xlink:href="#mobile-g"/>
        <use fill="#000" filter="url(#mobile-h)" xlink:href="#mobile-g"/>
      </g>
    </g>
  </g>
</svg>
