<svg xmlns="http://www.w3.org/2000/svg" xmlns:xlink="http://www.w3.org/1999/xlink" width="34" height="49" viewBox="0 0 34 49">
  <defs>
    <linearGradient id="1.5x240dpi-a" x1="13.901%" x2="13.901%" y1="100%" y2="0%">
      <stop offset="0%" stop-color="#60D2D9"/>
      <stop offset="100%" stop-color="#72F0CD"/>
    </linearGradient>
    <path id="1.5x240dpi-b" d="M25.4894827,46.7650332 L25.4726993,46.7747231 L13.2605271,25.6226204 L8.94736842,25.6226204 L8.94736842,48.9141463 L0,48.9141463 L0,24.4570732 L0,0 L0.0134378499,0 L0.0134378499,-0.00559910414 L21.4602464,-0.00559910414 L21.4602464,0.00309616158 C28.4115313,0.154368706 34,5.82962808 34,12.8085106 C34,19.0999468 29.4582772,24.3319344 23.4707212,25.4124584 L33.0395941,41.9862325 C33.0609726,42.0210154 33.081937,42.0561967 33.1024774,42.0917737 C33.1230178,42.1273508 33.1430035,42.1630972 33.1624372,42.199003 L33.2213476,42.3010389 L33.2171857,42.3034417 C34.2740907,44.3864174 33.512335,46.9655615 31.4458786,48.1586306 C29.3794222,49.3516998 26.7649401,48.7218276 25.4894827,46.7650332 Z M21.4736842,8.94745649 L21.4736842,8.93617021 L8.94736842,8.93617021 L8.94736842,16.6808511 L21.4736842,16.6808511 L21.4736842,16.6695648 C23.4756423,16.5174638 25.0526316,14.8469195 25.0526316,12.8085106 C25.0526316,10.7701018 23.4756423,9.09955751 21.4736842,8.94745649 Z"/>
    <filter id="1.5x240dpi-c" width="108.8%" height="106.1%" x="-4.4%" y="-3.1%" filterUnits="objectBoundingBox">
      <feGaussianBlur in="SourceAlpha" result="shadowBlurInner1" stdDeviation="1"/>
      <feOffset dy="1" in="shadowBlurInner1" result="shadowOffsetInner1"/>
      <feComposite in="shadowOffsetInner1" in2="SourceAlpha" k2="-1" k3="1" operator="arithmetic" result="shadowInnerInner1"/>
      <feColorMatrix in="shadowInnerInner1" values="0 0 0 0 0.112295596   0 0 0 0 0.205487975   0 0 0 0 0.314147534  0 0 0 0.76953125 0"/>
    </filter>
    <linearGradient id="1.5x240dpi-d" x1="50%" x2="50%" y1="0%" y2="98.113%">
      <stop offset="0%" stop-color="#6AE7C4"/>
      <stop offset="100%" stop-color="#3289DC"/>
    </linearGradient>
    <path id="1.5x240dpi-e" d="M-2.71507961e-14,33.0235664 C2.00064575,28.7338218 6.31029464,25.7348999 11.3333333,25.6204168 L11.3333333,25.6170213 L20.6255967,25.6170213 C20.6247623,25.6131319 20.6239258,25.6092432 20.6230874,25.6053553 C20.8062366,25.6131065 20.9903799,25.6170213 21.1754386,25.6170213 C28.2582483,25.6170213 34,19.8824557 34,12.8085106 C34,5.73456555 28.2582483,0 21.1754386,0 C15.4440372,0 10.5907642,3.75500943 8.94739618,8.93617021 L20.877193,8.93617021 L20.877193,8.94463891 C23.2088867,9.07748241 25.0526316,10.7566239 25.0526316,12.8085106 C25.0526316,14.8603974 23.2088867,16.5395389 20.877193,16.6723824 L20.877193,16.6808511 L8.94739618,16.6808511 C8.94899927,16.6859052 8.95060542,16.6909581 8.95221462,16.6960095 C5.19160759,16.8891705 1.91546558,18.9131578 -7.7102827e-12,21.8928567 L1.88153599e-15,33.0235664 Z"/>
    <filter id="1.5x240dpi-f" width="108.8%" height="109.1%" x="-4.4%" y="-4.5%" filterUnits="objectBoundingBox">
      <feGaussianBlur in="SourceAlpha" result="shadowBlurInner1" stdDeviation="1"/>
      <feOffset dy="1" in="shadowBlurInner1" result="shadowOffsetInner1"/>
      <feComposite in="shadowOffsetInner1" in2="SourceAlpha" k2="-1" k3="1" operator="arithmetic" result="shadowInnerInner1"/>
      <feColorMatrix in="shadowInnerInner1" values="0 0 0 0 0.0590890426   0 0 0 0 0.125379981   0 0 0 0 0.202673257  0 0 0 0.607252038 0"/>
    </filter>
  </defs>
  <g fill="none" fill-rule="evenodd">
    <use fill="url(#1.5x240dpi-a)" xlink:href="#1.5x240dpi-b"/>
    <use fill="#000" filter="url(#1.5x240dpi-c)" xlink:href="#1.5x240dpi-b"/>
    <g>
      <use fill="url(#1.5x240dpi-d)" xlink:href="#1.5x240dpi-e"/>
      <use fill="#000" filter="url(#1.5x240dpi-f)" xlink:href="#1.5x240dpi-e"/>
    </g>
  </g>
</svg>
