<svg xmlns="http://www.w3.org/2000/svg" xmlns:xlink="http://www.w3.org/1999/xlink" width="46" height="66" viewBox="0 0 46 66">
  <defs>
    <linearGradient id="2x320dpi-a" x1="13.901%" x2="13.901%" y1="100%" y2="0%">
      <stop offset="0%" stop-color="#60D2D9"/>
      <stop offset="100%" stop-color="#72F0CD"/>
    </linearGradient>
    <path id="2x320dpi-b" d="M34.4971774,62.9727253 L34.4220249,63.0161146 L17.9807284,34.5389538 L12.1052632,34.5389538 L12.1052632,65.8843604 L0,65.8843604 L0,32.9421802 L0,0 L0.0825467925,0 L0.0825467925,-0.0343944969 L28.9700848,-0.0343944969 L28.9700848,0.00289258896 C38.4046087,0.173071522 46,7.83071667 46,17.2522796 C46,25.718486 39.8668732,32.760364 31.7773649,34.2249028 L44.576282,56.3932775 C44.6408757,56.4913964 44.702985,56.5919962 44.7624786,56.6950422 C46.4159593,59.5589547 45.4229024,63.2278428 42.544424,64.8897331 C39.7546795,66.5003928 36.2178178,65.6347635 34.4971774,62.9727253 Z M29.0526316,12.0516761 L29.0526316,12.0364742 L12.1052632,12.0364742 L12.1052632,22.4680851 L29.0526316,22.4680851 L29.0526316,22.4528832 C31.7611631,22.2480124 33.8947368,19.9978916 33.8947368,17.2522796 C33.8947368,14.5066677 31.7611631,12.2565469 29.0526316,12.0516761 Z"/>
    <filter id="2x320dpi-c" width="106.5%" height="104.6%" x="-3.3%" y="-2.3%" filterUnits="objectBoundingBox">
      <feGaussianBlur in="SourceAlpha" result="shadowBlurInner1" stdDeviation="1"/>
      <feOffset dy="1" in="shadowBlurInner1" result="shadowOffsetInner1"/>
      <feComposite in="shadowOffsetInner1" in2="SourceAlpha" k2="-1" k3="1" operator="arithmetic" result="shadowInnerInner1"/>
      <feColorMatrix in="shadowInnerInner1" values="0 0 0 0 0.112295596   0 0 0 0 0.205487975   0 0 0 0 0.314147534  0 0 0 0.76953125 0"/>
    </filter>
    <linearGradient id="2x320dpi-d" x1="50%" x2="50%" y1="0%" y2="98.113%">
      <stop offset="0%" stop-color="#6AE7C4"/>
      <stop offset="100%" stop-color="#3289DC"/>
    </linearGradient>
    <path id="2x320dpi-e" d="M-3.90681638e-14,44.4807221 C2.70675601,38.7026988 8.53745745,34.6633345 15.3333333,34.5091328 L15.3333333,34.5045593 L27.9052191,34.5045593 C27.9040901,34.4993205 27.9029584,34.4940827 27.9018241,34.4888459 C28.1496143,34.4992863 28.3987492,34.5045593 28.6491228,34.5045593 C38.2317477,34.5045593 46,26.7804506 46,17.2522796 C46,7.72410869 38.2317477,0 28.6491228,0 C20.8948738,0 14.328681,5.05776781 12.1053007,12.0364742 L28.245614,12.0364742 L28.245614,12.047881 C31.4002585,12.226813 33.8947368,14.4885138 33.8947368,17.2522796 C33.8947368,20.0160455 31.4002585,22.2777462 28.245614,22.4566783 L28.245614,22.4680851 L12.1053007,22.4680851 C12.1074696,22.4748928 12.1096426,22.4816986 12.1118198,22.4885026 C7.02393968,22.7486786 2.59151225,25.4748656 -1.04338643e-11,29.4883376 L4.55775882e-16,44.4807221 Z"/>
    <filter id="2x320dpi-f" width="106.5%" height="106.7%" x="-3.3%" y="-3.4%" filterUnits="objectBoundingBox">
      <feGaussianBlur in="SourceAlpha" result="shadowBlurInner1" stdDeviation="1"/>
      <feOffset dy="1" in="shadowBlurInner1" result="shadowOffsetInner1"/>
      <feComposite in="shadowOffsetInner1" in2="SourceAlpha" k2="-1" k3="1" operator="arithmetic" result="shadowInnerInner1"/>
      <feColorMatrix in="shadowInnerInner1" values="0 0 0 0 0.0590890426   0 0 0 0 0.125379981   0 0 0 0 0.202673257  0 0 0 0.607252038 0"/>
    </filter>
  </defs>
  <g fill="none" fill-rule="evenodd">
    <use fill="url(#2x320dpi-a)" xlink:href="#2x320dpi-b"/>
    <use fill="#000" filter="url(#2x320dpi-c)" xlink:href="#2x320dpi-b"/>
    <g>
      <use fill="url(#2x320dpi-d)" xlink:href="#2x320dpi-e"/>
      <use fill="#000" filter="url(#2x320dpi-f)" xlink:href="#2x320dpi-e"/>
    </g>
  </g>
</svg>
