<svg xmlns="http://www.w3.org/2000/svg" xmlns:xlink="http://www.w3.org/1999/xlink" width="68" height="99" viewBox="0 0 68 99">
  <defs>
    <linearGradient id="3x480dpi-a" x1="13.901%" x2="13.901%" y1="100%" y2="0%">
      <stop offset="0%" stop-color="#60D2D9"/>
      <stop offset="100%" stop-color="#72F0CD"/>
    </linearGradient>
    <path id="3x480dpi-b" d="M49.9139293,92.4301484 L26.4244867,51.7452404 C26.1669673,51.7529546 25.9084947,51.7568389 25.6491228,51.7568389 C24.9653531,51.7568389 24.2878326,51.7298436 23.6175512,51.6768517 L17.8947368,51.6768517 L17.8947368,98.8265405 L0,98.8265405 L0,51.6768517 L-0.191969285,51.6768517 L-0.191969285,33.7821149 L0,33.7821149 L0,17.974724 L-0.191969285,17.974724 L-0.191969285,0.079987202 L2.77555756e-17,0.079987202 L0,0 L17.8947368,0 L17.8947368,0.079987202 L23.6175512,0.079987202 C24.2878326,0.0269953039 24.9653531,0 25.6491228,0 C26.3328925,0 27.010413,0.0269953039 27.6806944,0.079987202 L40.3193056,0.079987202 C40.989587,0.0269953039 41.6671075,0 42.3508772,0 C56.5164966,0 68,11.586163 68,25.8784195 C68,38.6171695 58.877236,49.2061356 46.8637332,51.35758 L66.5822275,85.5110141 L66.5462351,85.5317943 C68.6083467,89.6875911 67.0448862,94.8240596 62.8917572,97.2218698 C58.5740396,99.7147052 53.0923609,98.3035287 50.6480851,94.0699189 C50.341972,93.5397154 50.0980155,92.9903888 49.9139293,92.4301484 Z M42.9473684,18.0775141 L42.9473684,18.0547112 L17.8947368,18.0547112 L17.8947368,33.7021277 L42.9473684,33.7021277 L42.9473684,33.6793248 C46.9512846,33.3720186 50.1052632,29.9968374 50.1052632,25.8784195 C50.1052632,21.7600015 46.9512846,18.3848203 42.9473684,18.0775141 Z"/>
    <filter id="3x480dpi-c" width="107.6%" height="105.1%" x="-4%" y="-2.5%" filterUnits="objectBoundingBox">
      <feGaussianBlur in="SourceAlpha" result="shadowBlurInner1" stdDeviation="2"/>
      <feOffset dy="1" in="shadowBlurInner1" result="shadowOffsetInner1"/>
      <feComposite in="shadowOffsetInner1" in2="SourceAlpha" k2="-1" k3="1" operator="arithmetic" result="shadowInnerInner1"/>
      <feColorMatrix in="shadowInnerInner1" values="0 0 0 0 0.112295596   0 0 0 0 0.205487975   0 0 0 0 0.314147534  0 0 0 0.76953125 0"/>
    </filter>
    <linearGradient id="3x480dpi-d" x1="50%" x2="50%" y1="0%" y2="98.113%">
      <stop offset="0%" stop-color="#6AE7C4"/>
      <stop offset="100%" stop-color="#3289DC"/>
    </linearGradient>
    <path id="3x480dpi-e" d="M-5.42460814e-14,66.7210831 C4.0012915,58.0540482 12.6205893,51.9950018 22.6666667,51.7636992 L22.6666667,51.7568389 L41.2511934,51.7568389 C41.2495245,51.7489807 41.2478516,51.741124 41.2461747,51.7332689 C41.6124732,51.7489294 41.9807597,51.7568389 42.3508772,51.7568389 C56.5164966,51.7568389 68,40.1706759 68,25.8784195 C68,11.586163 56.5164966,0 42.3508772,0 C30.8880743,0 21.1815284,7.58665172 17.8947924,18.0547112 L41.754386,18.0547112 L41.754386,18.0718215 C46.4177734,18.3402196 50.1052632,21.7327707 50.1052632,25.8784195 C50.1052632,30.0240682 46.4177734,33.4166194 41.754386,33.6850174 L41.754386,33.7021277 L17.8947924,33.7021277 C17.8979985,33.7123392 17.9012108,33.7225479 17.9044292,33.7327539 C10.3832152,34.123018 3.83093116,38.2122985 -1.54218977e-11,44.2325064 L3.76307166e-15,66.7210831 Z"/>
    <filter id="3x480dpi-f" width="107.4%" height="107.5%" x="-3.7%" y="-3.7%" filterUnits="objectBoundingBox">
      <feGaussianBlur in="SourceAlpha" result="shadowBlurInner1" stdDeviation="2"/>
      <feOffset dy="1" in="shadowBlurInner1" result="shadowOffsetInner1"/>
      <feComposite in="shadowOffsetInner1" in2="SourceAlpha" k2="-1" k3="1" operator="arithmetic" result="shadowInnerInner1"/>
      <feColorMatrix in="shadowInnerInner1" values="0 0 0 0 0.0590890426   0 0 0 0 0.125379981   0 0 0 0 0.202673257  0 0 0 0.607252038 0"/>
    </filter>
  </defs>
  <g fill="none" fill-rule="evenodd">
    <use fill="url(#3x480dpi-a)" xlink:href="#3x480dpi-b"/>
    <use fill="#000" filter="url(#3x480dpi-c)" xlink:href="#3x480dpi-b"/>
    <g>
      <use fill="url(#3x480dpi-d)" xlink:href="#3x480dpi-e"/>
      <use fill="#000" filter="url(#3x480dpi-f)" xlink:href="#3x480dpi-e"/>
    </g>
  </g>
</svg>
